<svg xmlns="http://www.w3.org/2000/svg" viewBox="0 0 46.89 90.38"><defs><style>.cls-1{fill:#0e283b;}.cls-2{fill:#408a7d;}.cls-3{fill:#62a4a2;}</style></defs><g id="Layer_2" data-name="Layer 2"><g id="Layer_1-2" data-name="Layer 1"><rect class="cls-1" x="40.19" y="32.28" width="6.7" height="6.45"/><rect class="cls-1" x="40.19" y="25.82" width="6.7" height="6.46"/><rect class="cls-1" x="33.5" y="32.28" width="6.69" height="6.45"/><rect class="cls-2" x="33.5" y="25.82" width="6.69" height="6.46"/><rect class="cls-1" x="33.5" y="19.37" width="6.69" height="6.45"/><rect class="cls-1" x="33.5" y="12.9" width="6.69" height="6.46"/><rect class="cls-3" x="26.79" y="83.93" width="6.7" height="6.45"/><rect class="cls-2" x="26.79" y="71.01" width="6.7" height="6.45"/><rect class="cls-1" x="26.79" y="51.65" width="6.7" height="6.45"/><rect class="cls-1" x="26.79" y="45.19" width="6.7" height="6.46"/><rect class="cls-1" x="26.79" y="38.73" width="6.7" height="6.45"/><rect class="cls-1" x="26.79" y="32.28" width="6.7" height="6.45"/><rect class="cls-2" x="26.79" y="25.82" width="6.7" height="6.46"/><rect class="cls-2" x="26.79" y="19.37" width="6.7" height="6.45"/><rect class="cls-2" x="26.79" y="12.9" width="6.7" height="6.46"/><rect class="cls-1" x="26.79" y="6.45" width="6.7" height="6.45"/><rect class="cls-3" x="20.1" y="83.93" width="6.69" height="6.45"/><rect class="cls-2" x="20.1" y="71.01" width="6.69" height="6.45"/><rect class="cls-1" x="20.1" y="58.1" width="6.69" height="6.46"/><rect class="cls-2" x="20.1" y="51.65" width="6.69" height="6.45"/><rect class="cls-2" x="20.1" y="45.19" width="6.69" height="6.46"/><rect class="cls-2" x="20.1" y="38.73" width="6.69" height="6.45"/><rect class="cls-2" x="20.1" y="32.28" width="6.69" height="6.45"/><rect class="cls-2" x="20.1" y="25.82" width="6.69" height="6.46"/><rect class="cls-2" x="20.1" y="19.37" width="6.69" height="6.45"/><rect class="cls-2" x="20.1" y="12.9" width="6.69" height="6.46"/><rect class="cls-2" x="20.1" y="6.45" width="6.69" height="6.45"/><rect class="cls-1" x="20.1" width="6.69" height="6.45"/><rect class="cls-3" x="13.4" y="83.93" width="6.7" height="6.45"/><rect class="cls-2" x="13.4" y="71.01" width="6.7" height="6.45"/><rect class="cls-1" x="13.4" y="51.65" width="6.7" height="6.45"/><rect class="cls-1" x="13.4" y="45.19" width="6.7" height="6.46"/><rect class="cls-1" x="13.4" y="38.73" width="6.7" height="6.45"/><rect class="cls-1" x="13.4" y="32.28" width="6.7" height="6.45"/><rect class="cls-2" x="13.4" y="25.82" width="6.7" height="6.46"/><rect class="cls-2" x="13.4" y="19.37" width="6.7" height="6.45"/><rect class="cls-2" x="13.4" y="12.9" width="6.7" height="6.46"/><rect class="cls-1" x="13.4" y="6.45" width="6.7" height="6.45"/><rect class="cls-1" x="6.7" y="32.28" width="6.69" height="6.45"/><rect class="cls-2" x="6.7" y="25.82" width="6.69" height="6.46"/><rect class="cls-1" x="6.7" y="19.37" width="6.69" height="6.45"/><rect class="cls-1" x="6.7" y="12.9" width="6.69" height="6.46"/><rect class="cls-1" y="32.28" width="6.7" height="6.45"/><rect class="cls-1" y="25.82" width="6.7" height="6.46"/></g></g></svg>