<svg xmlns="http://www.w3.org/2000/svg" viewBox="0 0 46.88 51.65"><defs><style>.cls-1{fill:#321133;}.cls-2{fill:#e51c3f;}.cls-3{fill:#ea8390;}.cls-4{fill:#8b254f;}</style></defs><g id="Layer_2" data-name="Layer 2"><g id="Layer_1-2" data-name="Layer 1"><rect class="cls-1" x="40.19" y="32.28" width="6.69" height="6.45"/><rect class="cls-1" x="40.19" y="25.83" width="6.69" height="6.45"/><rect class="cls-1" x="40.19" y="19.37" width="6.69" height="6.46"/><rect class="cls-1" x="40.19" y="12.91" width="6.69" height="6.45"/><rect class="cls-1" x="33.49" y="38.73" width="6.7" height="6.46"/><rect class="cls-2" x="33.49" y="32.28" width="6.7" height="6.45"/><rect class="cls-2" x="33.49" y="25.83" width="6.7" height="6.45"/><rect class="cls-3" x="33.49" y="19.37" width="6.7" height="6.46"/><rect class="cls-3" x="33.49" y="12.91" width="6.7" height="6.45"/><rect class="cls-1" x="33.49" y="6.45" width="6.7" height="6.46"/><rect class="cls-1" x="26.79" y="45.2" width="6.69" height="6.45"/><rect class="cls-2" x="26.79" y="38.73" width="6.69" height="6.46"/><rect class="cls-4" x="26.79" y="32.28" width="6.69" height="6.45"/><rect class="cls-2" x="26.79" y="25.83" width="6.69" height="6.45"/><rect class="cls-2" x="26.79" y="19.37" width="6.69" height="6.46"/><rect class="cls-2" x="26.79" y="12.91" width="6.69" height="6.45"/><rect class="cls-3" x="26.79" y="6.45" width="6.69" height="6.46"/><rect class="cls-1" x="26.79" width="6.69" height="6.45"/><rect class="cls-1" x="20.09" y="45.2" width="6.7" height="6.45"/><rect class="cls-2" x="20.09" y="38.73" width="6.7" height="6.46"/><rect class="cls-4" x="20.09" y="32.28" width="6.7" height="6.45"/><rect class="cls-2" x="20.09" y="25.83" width="6.7" height="6.45"/><rect class="cls-2" x="20.09" y="19.37" width="6.7" height="6.46"/><rect class="cls-2" x="20.09" y="12.91" width="6.7" height="6.45"/><rect class="cls-3" x="20.09" y="6.45" width="6.7" height="6.46"/><rect class="cls-1" x="20.09" width="6.7" height="6.45"/><rect class="cls-1" x="13.4" y="45.2" width="6.69" height="6.45"/><rect class="cls-2" x="13.4" y="38.73" width="6.69" height="6.46"/><rect class="cls-4" x="13.4" y="32.28" width="6.69" height="6.45"/><rect class="cls-4" x="13.4" y="25.83" width="6.69" height="6.45"/><rect class="cls-4" x="13.4" y="19.37" width="6.69" height="6.46"/><rect class="cls-2" x="13.4" y="12.91" width="6.69" height="6.45"/><rect class="cls-2" x="13.4" y="6.45" width="6.69" height="6.46"/><rect class="cls-1" x="13.4" width="6.69" height="6.45"/><rect class="cls-1" x="6.69" y="38.73" width="6.7" height="6.46"/><rect class="cls-2" x="6.69" y="32.28" width="6.7" height="6.45"/><rect class="cls-2" x="6.69" y="25.83" width="6.7" height="6.45"/><rect class="cls-2" x="6.69" y="19.37" width="6.7" height="6.46"/><rect class="cls-2" x="6.69" y="12.91" width="6.7" height="6.45"/><rect class="cls-1" x="6.69" y="6.45" width="6.7" height="6.46"/><rect class="cls-1" y="32.28" width="6.69" height="6.45"/><rect class="cls-1" y="25.83" width="6.69" height="6.45"/><rect class="cls-1" y="19.37" width="6.69" height="6.46"/><rect class="cls-1" y="12.91" width="6.69" height="6.45"/></g></g></svg>